<?xml version="1.0" standalone="no"?>
<!DOCTYPE svg PUBLIC "-//W3C//DTD SVG 20010904//EN"
 "http://www.w3.org/TR/2001/REC-SVG-20010904/DTD/svg10.dtd">
<svg version="1.0" xmlns="http://www.w3.org/2000/svg"
 width="300.000000pt" height="300.000000pt" viewBox="0 0 300.000000 300.000000"
 preserveAspectRatio="xMidYMid meet">
<metadata>
Created by potrace 1.10, written by Peter Selinger 2001-2011
</metadata>
<g transform="translate(0.000000,300.000000) scale(0.100000,-0.100000)"
fill="#000000" stroke="none">
<path d="M1526 2961 c-20 -22 -14 -39 25 -71 18 -14 45 -37 61 -52 36 -35 63
-35 85 -2 17 26 17 27 -23 63 -99 89 -117 97 -148 62z m101 -52 c57 -46 63
-54 50 -67 -13 -13 -18 -12 -39 8 -12 12 -42 36 -65 53 -33 23 -40 33 -32 44
6 7 14 13 16 13 3 0 34 -23 70 -51z"/>
<path d="M2300 2891 c-8 -6 -18 -7 -22 -5 -4 3 -8 1 -8 -3 0 -5 -15 -14 -32
-21 -18 -7 -46 -23 -63 -37 -26 -21 -28 -27 -19 -52 11 -34 36 -40 78 -20 17
8 43 21 58 27 15 7 25 16 23 20 -3 4 4 10 15 13 25 6 27 49 4 71 -18 19 -15
18 -34 7z m25 -51 c-3 -5 -35 -24 -70 -43 -54 -29 -66 -32 -76 -21 -15 18 -13
20 69 64 53 29 69 34 75 23 4 -7 5 -17 2 -23z"/>
<path d="M1426 2766 c-7 -6 -16 -23 -18 -38 -5 -25 0 -30 46 -51 62 -29 143
-35 152 -12 3 8 3 26 0 40 -5 18 -13 25 -31 25 -14 0 -25 4 -25 8 0 5 -25 16
-55 24 -41 11 -58 12 -69 4z m100 -43 c52 -14 64 -21 62 -36 -4 -22 -6 -22
-90 4 -56 16 -68 24 -68 40 0 15 5 19 16 15 8 -3 45 -14 80 -23z"/>
<path d="M1813 2660 c-44 -38 -63 -74 -63 -122 0 -44 25 -96 61 -131 16 -15
18 -27 13 -70 -9 -73 -20 -82 -96 -80 -125 3 -114 1 -96 19 13 13 14 22 6 40
-15 33 -36 37 -73 14 -18 -11 -38 -20 -46 -20 -7 0 -23 -10 -37 -22 l-24 -23
-628 -5 c-489 -4 -632 -8 -642 -18 -9 -9 -12 -46 -10 -129 1 -64 5 -119 8
-122 3 -3 362 -6 799 -6 l792 0 0 -22 c0 -13 -3 -23 -7 -23 -4 0 -7 -15 -7
-32 0 -18 -3 -40 -6 -48 -3 -8 -8 -44 -12 -80 -3 -36 -10 -94 -15 -130 -5 -36
-12 -90 -16 -120 -3 -30 -9 -71 -14 -90 -15 -61 -23 -197 -12 -204 16 -10 38
3 50 28 5 12 18 23 28 23 16 0 15 -2 -2 -16 -70 -58 -73 -160 -7 -229 23 -24
143 -51 143 -33 0 5 10 13 22 17 46 14 78 66 78 127 0 56 -11 83 -48 114 -14
12 -23 25 -19 29 3 4 13 2 20 -4 8 -7 17 -9 20 -5 4 3 7 1 7 -5 0 -24 2 -27
23 -39 14 -7 26 -8 33 -2 18 15 26 57 15 78 -6 10 -11 36 -12 57 -1 21 -8 75
-15 119 -8 44 -16 124 -18 177 -2 53 -6 100 -9 105 -2 4 -5 35 -6 68 -1 33 -4
71 -6 85 -10 54 -17 53 392 55 208 1 384 5 391 9 16 9 17 236 1 236 -7 0 -9
-39 -7 -115 l3 -115 -400 4 c-472 5 -535 7 -535 18 0 5 -13 2 -30 -7 -25 -13
-130 -15 -820 -15 l-790 0 0 120 0 120 628 0 629 0 81 44 c79 43 92 45 92 20
0 -18 -84 -64 -119 -64 -42 0 -56 -29 -52 -110 2 -51 7 -69 23 -82 23 -20 60
-23 90 -7 15 8 26 8 42 -1 15 -8 30 -8 49 -1 14 6 29 7 31 2 7 -11 125 -12
146 -1 12 6 16 18 14 37 -3 25 -3 24 6 -4 7 -22 19 -35 36 -39 31 -8 41 1 60
52 l14 39 -3 -42 c-1 -26 2 -44 9 -47 24 -9 373 -6 378 3 4 6 18 5 36 -2 22
-8 38 -8 60 0 17 7 32 7 36 2 9 -15 70 -10 84 6 7 8 10 26 8 39 -3 14 -1 31 4
38 13 20 28 -11 22 -46 -6 -34 7 -46 52 -46 40 0 55 18 50 60 -4 35 11 80 26
80 18 0 7 31 -14 39 -36 13 -451 8 -455 -5 -4 -13 -43 -4 -95 21 -21 11 -29
11 -37 1 -7 -8 -37 -11 -88 -10 -97 2 -95 2 -88 14 3 6 44 10 90 10 46 0 87 5
90 10 4 7 12 7 25 0 24 -13 623 -14 616 -1 -3 5 -140 10 -303 11 -362 2 -342
3 -428 -1 l-70 -3 1 70 c1 67 3 73 38 110 34 36 37 43 35 97 -1 31 -6 57 -11
57 -4 0 -8 6 -8 13 0 15 -31 45 -75 73 -22 14 -27 15 -20 4 7 -13 6 -13 -7 -2
-24 19 -73 11 -105 -18z m158 -38 c69 -64 64 -148 -10 -186 l-29 -15 6 -91 c4
-76 2 -90 -10 -90 -12 0 -17 19 -23 86 -7 92 -23 103 -31 23 -10 -93 -15 -109
-31 -109 -8 0 -13 -6 -10 -13 3 -9 -29 -12 -148 -12 -124 0 -149 2 -135 12 11
8 66 13 151 15 l134 3 10 87 c10 81 9 88 -7 94 -25 8 -55 53 -63 96 -13 68 46
138 117 138 31 0 47 -7 79 -38z m-61 -403 c0 -3 -11 -4 -24 -2 -21 4 -23 8
-13 23 10 17 12 17 24 2 7 -9 13 -20 13 -23z m-388 -74 c-5 -65 1 -87 24 -78
13 5 15 17 12 69 -3 54 -1 64 12 64 14 0 16 -10 12 -62 -5 -75 -14 -88 -57
-88 -43 0 -52 13 -57 88 l-4 62 31 0 32 0 -5 -55z m177 -2 c35 -65 39 -93 13
-93 -11 0 -27 17 -42 48 l-25 47 -3 -33 c-2 -18 2 -40 9 -48 9 -11 7 -14 -14
-14 -23 0 -24 2 -19 48 3 26 9 50 14 53 5 3 2 13 -6 22 -23 22 -20 27 13 27
26 0 34 -8 60 -57z m37 41 c-3 -9 -6 -24 -6 -35 0 -10 -4 -19 -10 -19 -5 0
-10 10 -10 23 0 13 -5 28 -12 35 -9 9 -6 12 16 12 22 0 27 -4 22 -16z m76 -44
c-3 -39 0 -65 8 -75 11 -13 7 -15 -29 -15 -30 0 -40 3 -35 12 12 18 13 112 2
126 -8 9 -2 12 24 12 l34 0 -4 -60z m96 17 c1 -23 4 -55 5 -72 1 -20 -3 -30
-14 -33 -12 -2 -21 13 -34 60 -9 34 -19 68 -22 75 -4 9 5 13 28 13 33 0 34 -2
37 -43z m52 34 c0 -6 -4 -13 -10 -16 -5 -3 -10 -17 -10 -30 0 -13 -4 -27 -10
-30 -6 -4 -9 12 -8 40 2 36 6 45 20 45 10 0 18 -4 18 -9z m70 -66 l0 -75 -27
0 -28 0 0 75 0 75 28 0 27 0 0 -75z m60 50 c0 -14 -4 -25 -10 -25 -5 0 -10
-11 -10 -25 0 -14 5 -25 10 -25 6 0 10 -11 10 -25 0 -20 -5 -25 -25 -25 -29 0
-32 8 -8 25 16 12 16 14 0 29 -9 10 -17 19 -17 21 0 2 8 11 17 21 16 15 16 17
0 29 -24 17 -21 25 8 25 20 0 25 -5 25 -25z m70 -34 c0 -33 3 -66 6 -75 5 -13
-1 -16 -27 -16 l-34 0 0 75 0 75 28 0 c26 0 27 -1 27 -59z m54 43 c9 -8 16
-19 16 -24 0 -5 -7 -16 -16 -24 -8 -9 -11 -16 -6 -16 12 0 34 -49 27 -61 -8
-12 -42 -12 -50 0 -3 6 -7 39 -8 75 -4 70 6 82 37 50z m139 -11 c5 -28 -3 -29
-26 -3 -10 12 -22 18 -27 15 -18 -11 -11 -23 25 -44 60 -35 38 -91 -36 -91
-37 0 -39 1 -39 33 l0 32 23 -29 c14 -17 29 -26 35 -22 17 10 15 26 -5 33 -75
26 -65 106 12 101 26 -1 34 -7 38 -25z m89 15 c-7 -7 -12 -35 -12 -63 0 -28 5
-56 12 -63 9 -9 2 -12 -31 -12 -33 0 -41 3 -34 13 11 14 11 107 0 125 -6 9 3
12 34 12 34 0 40 -3 31 -12z m98 -48 c0 -32 3 -65 6 -74 5 -13 -1 -16 -28 -16
l-34 0 4 66 c3 48 1 65 -7 60 -6 -4 -11 -14 -11 -22 0 -8 -4 -13 -9 -10 -4 3
-6 16 -4 30 4 20 11 24 44 24 l39 1 0 -59z m107 46 c-3 -8 1 -22 8 -33 14 -17
14 -17 16 2 1 11 1 26 0 33 -1 7 9 12 25 12 25 0 26 -2 13 -17 -39 -49 -50
-98 -27 -121 9 -9 3 -12 -29 -12 -41 0 -42 0 -37 33 3 20 -3 47 -15 72 -18 38
-19 39 -20 13 -1 -28 -21 -41 -21 -14 0 8 -3 21 -6 30 -5 13 3 16 46 16 41 0
51 -3 47 -14z m-180 -103 c-3 -10 -5 -2 -5 17 0 19 2 27 5 18 2 -10 2 -26 0
-35z m-863 2 c-4 -8 -8 -15 -10 -15 -2 0 -4 7 -4 15 0 8 4 15 10 15 5 0 7 -7
4 -15z m226 -92 c0 -10 -16 -119 -35 -243 -19 -124 -41 -274 -51 -335 -9 -60
-21 -122 -26 -137 -13 -34 -33 -37 -24 -4 6 24 90 572 101 661 4 28 8 56 10
63 6 18 25 15 25 -5z m44 2 c-4 -8 -10 -15 -15 -15 -5 0 -9 7 -9 15 0 8 7 15
15 15 9 0 12 -6 9 -15z m90 -92 c10 -159 45 -500 57 -564 15 -77 8 -106 -14
-59 -14 31 -40 253 -62 540 -3 41 -8 101 -11 133 -5 46 -3 57 9 57 11 0 16
-23 21 -107z m-50 11 c4 -42 5 -79 2 -81 -8 -8 -74 50 -75 65 -1 15 50 91 60
92 3 0 9 -34 13 -76z m2 -126 c21 -40 7 -89 -40 -143 -29 -35 -35 -38 -50 -26
-9 8 -16 28 -16 49 0 34 17 153 26 180 6 19 60 -21 80 -60z m24 -196 l0 -64
-40 32 -40 32 32 44 c38 54 48 45 48 -44z m-126 -23 c-21 -24 -27 -19 -18 15
5 21 9 24 20 15 12 -10 12 -15 -2 -30z m77 -24 c36 -27 69 -78 69 -108 0 -21
-35 -93 -50 -102 -24 -15 -27 9 -5 42 36 51 32 85 -12 129 l-37 37 -22 -28
c-12 -16 -28 -48 -35 -72 -11 -40 -10 -45 7 -58 10 -7 28 -20 39 -29 20 -15
20 -15 -5 -15 -14 0 -37 10 -51 23 -25 22 -26 27 -18 70 10 53 23 81 52 114
25 27 26 27 68 -3z m-21 -56 c0 -5 4 -8 9 -5 4 3 13 -6 20 -20 8 -19 8 -32 -4
-59 -16 -40 -28 -43 -52 -16 -9 11 -20 18 -25 15 -13 -8 -9 9 7 30 8 10 12 23
9 27 -5 9 16 38 29 39 4 0 7 -5 7 -11z m100 -155 c0 -33 -2 -35 -17 -23 -10 7
-19 14 -21 15 -6 3 23 44 30 44 5 0 8 -16 8 -36z m-180 -4 c0 -9 -31 -22 -37
-16 -3 2 -2 14 2 26 5 17 10 19 21 9 8 -6 14 -15 14 -19z m96 -22 c6 -10 -24
-9 -51 2 -16 6 -14 8 13 7 18 0 35 -4 38 -9z m-76 -8 c0 -5 -4 -10 -10 -10 -5
0 -10 5 -10 10 0 6 5 10 10 10 6 0 10 -4 10 -10z m110 0 c0 -5 -2 -10 -4 -10
-3 0 -8 5 -11 10 -3 6 -1 10 4 10 6 0 11 -4 11 -10z m-10 -33 c34 -17 70 -74
70 -111 0 -60 -62 -126 -120 -126 -64 0 -130 62 -130 123 0 89 102 154 180
114z"/>
<path d="M1847 2619 c-23 -13 -47 -62 -47 -94 0 -16 12 -38 29 -56 33 -33 67
-37 111 -14 36 19 50 43 50 88 0 64 -86 109 -143 76z m89 -29 c32 -23 36 -51
14 -88 -16 -26 -26 -32 -54 -32 -60 0 -88 73 -43 116 25 25 52 26 83 4z"/>
<path d="M1873 1914 c-3 -8 -1 -20 6 -27 8 -8 11 -4 11 16 0 30 -7 35 -17 11z"/>
<path d="M1856 1801 c-8 -13 -20 -151 -13 -151 14 0 57 76 57 100 0 26 -35 66
-44 51z"/>
<path d="M1897 1604 c-8 -8 1 -24 14 -24 5 0 9 7 9 15 0 15 -12 20 -23 9z"/>
<path d="M2233 2643 c-15 -10 -23 -26 -23 -44 0 -20 6 -30 23 -35 53 -18 169
10 181 43 3 8 1 23 -4 34 -9 16 -22 19 -83 18 -48 0 -79 -5 -94 -16z m162 -22
c0 -17 -35 -27 -112 -34 -46 -3 -53 -2 -53 14 0 20 17 26 85 32 62 6 80 3 80
-12z"/>
<path d="M1440 2523 c-45 -6 -60 -19 -60 -52 0 -42 14 -48 97 -44 84 4 113 19
113 59 0 40 -41 50 -150 37z m127 -29 c9 -24 -6 -31 -89 -38 l-78 -7 0 25 c0
16 5 24 13 21 10 -4 52 0 140 14 4 0 10 -6 14 -15z"/>
<path d="M2203 2438 c-40 -49 -16 -77 88 -104 70 -18 86 -15 95 21 7 30 -16
54 -54 55 -13 0 -21 4 -18 9 3 5 -11 11 -32 14 -20 3 -44 8 -53 11 -9 4 -20 1
-26 -6z m99 -40 c63 -20 82 -38 58 -53 -9 -5 -126 27 -152 42 -10 5 2 33 15
33 6 0 41 -10 79 -22z"/>
<path d="M254 2197 c-19 -15 -22 -27 -23 -86 0 -58 2 -71 17 -75 37 -10 677
-6 705 6 21 8 31 8 40 -1 14 -14 80 -14 94 0 8 8 17 8 30 0 24 -12 141 -13
149 0 3 5 13 5 24 -1 25 -13 73 -13 87 1 6 6 9 26 6 45 -4 23 1 46 15 73 16
30 18 42 9 48 -12 7 -762 12 -784 5 -8 -2 -13 -22 -13 -48 0 -25 -5 -44 -11
-44 -6 0 -9 17 -7 43 3 41 2 42 -36 52 -34 8 -41 6 -55 -12 -16 -20 -18 -20
-29 -3 -9 15 -25 18 -65 11 -4 0 -13 -13 -19 -28 -10 -25 -12 -26 -16 -8 -2
11 -9 26 -14 32 -14 18 -77 12 -104 -10z m96 -26 l0 -25 -21 22 c-11 12 -24
20 -30 17 -16 -11 -10 -24 20 -39 37 -20 45 -43 26 -72 -12 -19 -24 -24 -55
-24 -38 0 -40 1 -40 33 l0 32 23 -29 c14 -17 29 -26 35 -22 17 10 15 26 -5 33
-76 27 -65 106 13 101 29 -2 34 -6 34 -27z m125 -26 c6 -27 15 -60 19 -72 7
-21 4 -23 -29 -23 -33 0 -36 2 -30 22 6 17 4 20 -9 15 -9 -4 -16 -2 -16 3 0 6
5 10 11 10 12 0 8 47 -7 83 -6 16 -2 18 21 15 25 -3 30 -9 40 -53z m97 -17
c-4 -66 -3 -71 12 -59 9 7 16 20 16 27 0 8 5 14 10 14 6 0 10 -13 10 -30 0
-30 -1 -30 -53 -30 l-53 0 4 60 c3 39 0 65 -8 75 -11 13 -7 15 27 15 l39 0 -4
-72z m118 57 c-8 -10 -11 -36 -8 -75 4 -59 4 -60 -22 -60 -25 0 -26 1 -23 62
1 34 -3 68 -9 75 -8 10 -2 13 32 13 37 0 41 -2 30 -15z m120 -14 l0 -25 -20
22 c-22 24 -59 20 -39 -4 6 -7 19 -16 30 -19 32 -10 43 -42 24 -71 -8 -13 -23
-24 -31 -24 -13 0 -14 3 -4 15 13 15 6 35 -12 35 -20 0 -48 33 -48 56 0 29 25
44 68 42 27 -2 32 -6 32 -27z m80 -46 l0 -75 -27 0 -28 0 0 75 0 75 28 0 27 0
0 -75z m51 65 c23 -13 25 -48 3 -57 -15 -5 -15 -7 0 -15 30 -17 13 -68 -23
-68 -13 0 -16 14 -16 75 0 77 3 82 36 65z m104 -65 c0 -61 -3 -75 -15 -75 -28
0 -40 23 -40 75 0 28 -5 56 -12 63 -9 9 -3 12 28 12 l39 0 0 -75z m61 59 c-3
-9 -6 -35 -6 -58 0 -43 -22 -87 -36 -73 -4 4 -2 13 4 19 16 16 15 101 0 116
-9 9 -6 12 16 12 22 0 27 -4 22 -16z m74 -47 c0 -36 5 -68 12 -75 9 -9 3 -12
-28 -12 l-39 0 5 65 c3 37 1 70 -4 75 -7 7 1 10 22 10 l32 0 0 -63z m51 53
c23 -13 25 -48 3 -57 -15 -5 -15 -7 0 -15 9 -5 16 -15 16 -23 0 -7 5 -15 12
-17 19 -7 -1 -28 -27 -28 -28 0 -34 15 -39 98 -3 54 2 59 35 42z m105 -7 c-3
-10 -2 -24 3 -32 7 -11 11 -10 19 6 8 14 8 23 0 31 -9 9 -5 12 15 12 15 0 27
-4 27 -10 0 -5 -4 -10 -8 -10 -5 0 -15 -12 -22 -27 -14 -31 -19 -83 -7 -83 4
0 7 -4 7 -10 0 -5 -19 -10 -42 -10 -33 0 -39 3 -30 12 17 17 15 43 -8 90 -11
23 -20 43 -20 45 0 2 16 3 36 3 29 0 34 -3 30 -17z m-929 -73 c-2 -55 -4 -60
-25 -60 -21 0 -21 2 -8 23 8 12 18 39 21 60 10 54 15 46 12 -23z m871 -5 c-3
-3 -9 2 -12 12 -6 14 -5 15 5 6 7 -7 10 -15 7 -18z m-548 -21 c0 -8 5 -14 10
-14 6 0 10 -4 10 -10 0 -5 -9 -10 -20 -10 -16 0 -20 7 -20 31 0 17 4 28 10 24
6 -3 10 -13 10 -21z"/>
<path d="M409 1940 c-78 -25 -129 -53 -160 -87 -95 -102 -104 -310 -17 -400
18 -18 38 -33 45 -33 7 0 13 -4 13 -9 0 -5 14 -11 30 -14 17 -4 30 -11 30 -17
0 -6 -5 -8 -10 -5 -6 4 -16 2 -23 -3 -7 -6 -15 -10 -19 -9 -14 4 -58 -44 -73
-79 -17 -41 -20 -100 -5 -109 6 -3 10 -14 10 -24 0 -9 15 -33 32 -52 43 -47
133 -81 205 -78 30 2 59 -3 65 -9 7 -7 17 -12 22 -12 6 0 4 5 -4 11 -11 8 -8
9 17 5 17 -3 33 -1 35 5 2 5 13 11 25 12 13 0 25 7 27 14 3 7 12 13 19 13 8 0
30 15 49 33 97 91 148 221 148 379 0 93 -14 192 -30 213 -4 6 -11 25 -15 43
-12 58 -121 182 -161 182 -6 0 -17 6 -24 14 -6 8 -18 12 -26 9 -8 -3 -14 -1
-14 3 0 12 -51 14 -71 3 -11 -5 -23 -3 -35 6 -23 17 -17 18 -85 -5z m91 -39
c0 -20 -8 -34 -25 -45 -25 -16 -25 -17 -25 -175 0 -179 5 -195 61 -174 29 11
29 11 29 -27 0 -35 -3 -39 -40 -54 -89 -36 -197 -12 -257 57 -80 91 -66 253
31 355 40 43 77 63 146 78 79 18 80 17 80 -15z m137 -1 c51 -22 124 -94 153
-150 56 -109 74 -279 44 -410 -16 -70 -65 -163 -112 -213 -34 -35 -137 -87
-174 -87 -25 0 -28 4 -28 31 0 23 5 32 20 36 46 12 50 40 50 388 0 327 -4 365
-35 365 -10 0 -15 11 -15 35 0 33 1 35 28 29 15 -4 46 -15 69 -24z m-67 -234
c0 -82 -3 -146 -6 -143 -4 3 -7 48 -7 99 l-1 93 -3 -87 c-2 -49 -7 -88 -11
-89 -4 0 -17 -2 -29 -5 -12 -2 -25 1 -28 6 -3 6 -6 71 -6 146 0 119 2 138 18
153 17 17 19 17 46 -3 l27 -20 0 -150z m-31 -521 c-30 -33 -47 -35 -77 -10 -2
2 6 21 17 44 34 66 22 125 -35 170 -15 12 -25 23 -23 24 2 2 30 9 62 16 37 8
62 20 70 32 10 16 13 -4 15 -111 l3 -130 -32 -35z m-96 167 c36 -36 39 -87 7
-132 -25 -34 -19 -70 11 -70 15 0 19 -7 19 -36 l0 -37 -41 6 c-58 8 -145 53
-170 89 -30 41 -36 115 -14 157 34 66 132 78 188 23z"/>
<path d="M253 1635 c0 -27 2 -38 4 -22 2 15 2 37 0 50 -2 12 -4 0 -4 -28z"/>
<path d="M553 1770 c0 -25 2 -35 4 -22 2 12 2 32 0 45 -2 12 -4 2 -4 -23z"/>
<path d="M552 1290 c0 -14 2 -19 5 -12 2 6 2 18 0 25 -3 6 -5 1 -5 -13z"/>
<path d="M1316 1945 c-13 -10 -23 -12 -30 -5 -13 13 -48 13 -83 -1 -77 -32
-94 -42 -136 -83 -43 -43 -83 -93 -86 -108 -2 -10 -10 -34 -18 -55 -39 -103
-43 -297 -9 -398 27 -79 43 -110 87 -165 52 -66 141 -111 211 -108 26 1 54 -4
62 -11 8 -7 21 -11 28 -8 8 3 5 6 -7 7 -20 3 76 21 108 21 9 0 17 4 17 9 0 5
15 16 34 25 76 36 128 128 134 237 9 155 -31 215 -188 282 -8 3 -3 4 13 2 15
-2 27 1 27 6 0 6 7 8 15 4 9 -3 28 8 49 28 36 37 53 100 40 152 -8 33 -44 93
-66 112 -11 9 -175 74 -182 72 -1 0 -10 -7 -20 -15z m-36 -50 c0 -19 -5 -35
-10 -35 -6 0 -22 -11 -35 -25 l-25 -24 0 -331 c0 -332 4 -370 35 -370 11 0 15
-11 15 -36 0 -35 -1 -36 -29 -31 -131 27 -231 143 -265 310 -37 176 -5 337 90
454 44 54 86 83 149 105 70 24 75 23 75 -17z m163 2 c55 -23 100 -70 117 -122
10 -31 9 -44 -4 -80 -26 -66 -87 -96 -152 -75 -72 24 -95 98 -49 160 33 44 32
59 -5 73 -25 9 -30 17 -30 44 0 31 1 32 38 26 20 -3 58 -15 85 -26z m-107 -79
c3 -12 1 -24 -6 -28 -17 -11 -24 -83 -11 -122 6 -19 24 -41 41 -52 38 -22 32
-32 -23 -41 -23 -4 -46 -11 -52 -15 -5 -5 -18 -10 -28 -12 -17 -3 -18 7 -20
123 -1 134 4 153 48 169 26 10 43 3 51 -22z m104 -269 c70 -16 118 -53 146
-112 67 -146 -14 -331 -167 -380 -28 -10 -65 -17 -83 -17 -28 0 -31 3 -30 30
0 20 9 36 22 46 21 14 22 23 22 164 0 81 -3 155 -6 164 -7 19 -55 21 -72 4 -9
-9 -12 -3 -12 30 0 37 4 44 28 54 22 9 64 20 102 27 3 0 25 -4 50 -10z m-152
-127 l37 3 1 -140 c1 -128 -1 -141 -19 -156 -25 -20 -66 -4 -68 26 -5 94 -2
290 4 279 6 -10 21 -14 45 -12z"/>
<path d="M1031 1634 c0 -11 3 -14 6 -6 3 7 2 16 -1 19 -3 4 -6 -2 -5 -13z"/>
<path d="M2428 1953 c-9 -2 -24 -18 -33 -36 -11 -22 -15 -25 -12 -10 3 13 1
26 -5 29 -13 8 -68 12 -63 4 2 -3 -16 -12 -40 -19 -140 -41 -195 -220 -95
-313 33 -31 132 -29 166 3 30 28 51 73 53 112 1 26 -22 74 -42 88 -10 7 20 39
36 39 7 0 23 -9 36 -19 24 -18 25 -24 25 -135 -1 -103 -3 -118 -20 -131 -10
-8 -28 -15 -39 -15 -30 0 -45 -19 -45 -55 0 -38 16 -55 51 -55 45 0 52 -20 54
-153 l1 -122 -34 -31 -34 -31 -23 21 c-23 20 -23 21 -4 47 13 18 19 44 19 78
0 45 -4 55 -38 91 -37 38 -42 40 -100 40 -34 0 -62 -3 -62 -8 0 -4 -10 -12
-22 -17 -30 -14 -58 -72 -58 -124 0 -75 63 -169 119 -178 8 -1 17 -5 20 -10 9
-12 30 -16 106 -19 39 -1 86 -3 105 -4 l35 -3 -35 -7 -35 -7 43 -2 c30 -1 41
2 36 10 -5 9 1 10 21 5 16 -4 31 -3 34 3 4 6 17 12 29 14 12 2 25 6 29 11 4 4
27 15 50 26 24 10 43 25 43 33 0 8 6 17 14 20 19 8 56 109 56 156 0 60 -28
127 -72 171 -22 22 -44 40 -48 40 -5 0 9 17 31 38 51 51 69 97 69 180 0 58 -4
75 -26 108 -33 49 -59 72 -104 91 -37 16 -161 54 -170 52 -3 -1 -12 -3 -22 -6z
m-68 -63 c0 -34 -3 -40 -20 -40 -34 0 -35 -28 -1 -59 25 -24 31 -37 31 -71 0
-34 -6 -48 -34 -76 -28 -28 -42 -34 -76 -34 -34 0 -48 6 -76 34 -27 27 -34 42
-34 74 0 23 5 53 11 69 14 39 64 88 107 106 21 8 48 19 62 25 14 6 26 11 28
11 1 1 2 -17 2 -39z m207 13 c170 -50 219 -247 89 -361 -21 -18 -51 -35 -67
-39 -33 -6 -39 -23 -9 -23 26 0 90 -32 112 -57 47 -52 63 -173 32 -239 -39
-81 -153 -144 -262 -144 -41 0 -42 1 -42 35 0 19 5 35 10 35 6 0 22 11 35 25
24 23 25 29 25 155 0 117 -2 132 -20 150 -11 11 -30 20 -43 20 -32 0 -60 23
-55 46 2 13 15 21 42 25 64 10 76 34 76 153 0 124 -5 143 -41 162 -24 12 -29
21 -29 49 l0 35 48 -6 c26 -3 70 -12 99 -21z m-257 -572 c59 -43 63 -116 9
-169 -35 -34 -31 -52 12 -52 27 0 29 -3 29 -36 l0 -36 -37 6 c-61 11 -141 55
-171 93 -35 47 -39 138 -7 173 45 51 113 60 165 21z m77 -283 c-3 -8 -6 -5 -6
6 -1 11 2 17 5 13 3 -3 4 -12 1 -19z"/>
<path d="M443 1003 c9 -2 23 -2 30 0 6 3 -1 5 -18 5 -16 0 -22 -2 -12 -5z"/>
<path d="M1238 1003 c7 -3 16 -2 19 1 4 3 -2 6 -13 5 -11 0 -14 -3 -6 -6z"/>
<path d="M1800 1006 c0 -2 7 -7 16 -10 8 -3 12 -2 9 4 -6 10 -25 14 -25 6z"/>
<path d="M2338 1003 c7 -3 16 -2 19 1 4 3 -2 6 -13 5 -11 0 -14 -3 -6 -6z"/>
<path d="M248 971 c-40 -13 -48 -51 -18 -81 11 -11 18 -20 15 -20 -3 0 0 -10
6 -22 13 -24 21 -52 44 -157 8 -35 19 -69 26 -77 6 -7 8 -17 5 -22 -3 -5 1
-24 10 -41 8 -17 12 -36 8 -42 -3 -6 -2 -14 4 -18 6 -4 12 -21 14 -39 1 -18 6
-32 10 -32 4 0 8 -10 8 -23 0 -40 27 -67 68 -67 64 0 78 9 91 51 6 21 16 57
23 79 6 22 11 47 11 56 0 41 25 -31 42 -122 8 -44 32 -61 85 -60 56 1 67 8 75
49 4 17 10 37 13 42 4 6 7 15 8 20 1 6 7 30 13 53 7 24 11 56 9 72 -1 15 2 34
9 41 6 8 15 34 21 59 33 139 50 185 79 210 69 58 42 92 -72 92 -63 0 -79 -3
-90 -18 -19 -26 -18 -34 7 -61 25 -26 27 -82 4 -114 -13 -19 -14 -19 -20 13
-4 18 -8 42 -10 54 -1 11 -5 25 -9 30 -3 6 -8 21 -11 35 -6 33 -17 59 -25 60
-65 5 -104 3 -110 -6 -10 -12 -28 -69 -35 -109 -6 -35 -20 -51 -35 -42 -16 10
-14 65 3 81 14 15 11 61 -6 71 -11 7 -251 11 -270 5z m267 -32 c4 -6 -3 -21
-15 -34 l-21 -23 40 -157 40 -157 -20 -86 c-11 -48 -22 -95 -25 -104 -4 -14
-16 -18 -53 -18 l-47 0 -38 138 c-22 75 -54 193 -72 261 -22 82 -40 130 -54
143 -17 16 -19 23 -9 34 14 18 264 21 274 3z m186 -11 c0 -13 22 -102 48 -198
l47 -175 -25 -97 -25 -98 -48 0 c-26 0 -48 2 -48 5 0 2 -23 86 -50 187 l-51
183 27 108 26 107 49 0 c44 0 49 -2 50 -22z m237 0 c2 -9 -5 -19 -18 -23 -29
-9 -46 -48 -79 -176 -28 -110 -32 -113 -46 -43 -5 27 11 117 31 168 4 10 -7
27 -26 45 -46 41 -33 52 58 49 62 -2 77 -6 80 -20z"/>
<path d="M1426 972 c-3 -2 -96 -5 -208 -5 l-203 -2 -3 -32 c-2 -22 3 -40 17
-55 12 -12 27 -34 33 -50 7 -15 16 -28 20 -28 5 0 8 -7 8 -16 0 -8 20 -53 44
-99 l44 -83 -39 -54 c-21 -29 -39 -58 -39 -64 0 -5 -20 -27 -45 -48 -25 -22
-45 -46 -45 -56 0 -23 36 -54 54 -47 9 4 18 2 20 -2 8 -12 109 0 127 15 20 18
34 18 49 -1 16 -20 242 -21 280 -2 34 17 37 55 6 88 -28 30 -56 82 -56 103 0
8 -3 16 -7 18 -5 2 -27 40 -50 86 l-42 83 45 62 c26 34 61 76 80 92 58 52 40
96 -41 100 -25 1 -47 0 -49 -3z m-117 -36 c9 -10 8 -16 -4 -26 -8 -7 -15 -18
-15 -25 0 -24 222 -460 242 -476 13 -10 19 -23 15 -33 -9 -23 -274 -24 -284
-1 -3 9 2 22 13 30 18 13 13 26 -99 250 -64 130 -124 238 -132 241 -15 6 -20
35 -8 47 3 4 64 7 133 7 96 0 130 -3 139 -14z m219 -6 c1 -9 -10 -23 -26 -32
-16 -10 -49 -47 -72 -84 l-43 -66 -12 29 c-10 23 -8 33 9 62 l20 34 -29 22
c-18 15 -26 29 -22 39 9 24 170 19 175 -4z m-178 -45 c0 14 20 -17 20 -32 0
-7 -8 -13 -18 -13 -23 0 -48 46 -29 53 7 2 15 -1 19 -7 5 -6 8 -7 8 -1z m-158
-393 c-32 -47 -34 -61 -7 -78 14 -9 25 -25 25 -36 0 -17 -7 -19 -87 -16 -97 3
-112 15 -60 45 20 12 49 48 76 93 l44 73 14 -27 c12 -24 12 -30 -5 -54z m61
-47 c4 -11 2 -27 -3 -35 -7 -12 -12 -12 -29 4 -23 21 -28 62 -9 68 15 5 33
-11 41 -37z"/>
<path d="M1755 963 c-81 -41 -115 -101 -115 -200 0 -63 22 -133 41 -133 18 0
8 -26 -13 -35 -22 -9 -23 -16 -26 -132 l-3 -122 26 -7 c14 -3 33 -3 42 2 24
10 36 11 48 5 6 -3 18 -7 29 -8 10 -2 26 -8 35 -13 13 -8 10 -10 -14 -9 -16 0
-386 0 -822 -1 -719 -1 -792 -2 -797 -17 -12 -30 -8 -234 5 -249 10 -12 198
-14 1287 -14 905 1 1280 4 1289 12 18 15 19 241 0 256 -10 9 -582 17 -857 13
-33 0 -33 0 -11 10 13 5 29 8 35 6 6 -2 17 3 25 10 7 8 20 12 28 9 8 -3 11 -1
8 4 -3 6 0 10 9 10 21 0 74 56 91 97 20 47 19 146 -1 189 -9 19 -20 34 -24 34
-5 0 -12 9 -15 20 -3 11 -14 21 -23 21 -9 1 -2 4 17 8 43 8 51 32 47 143 -4
100 -17 117 -75 102 -22 -6 -46 -7 -53 -3 -23 15 -180 8 -213 -8z m108 -28
c-3 -13 -16 -31 -29 -40 -29 -19 -32 -65 -6 -91 9 -10 53 -35 97 -55 44 -21
90 -46 102 -56 41 -34 63 -85 63 -144 0 -47 -5 -65 -32 -105 -34 -50 -92 -87
-155 -98 -31 -5 -33 -4 -33 23 0 23 6 30 25 35 31 8 50 45 41 80 -5 21 -27 36
-104 75 -138 70 -172 111 -172 210 0 73 34 129 99 163 29 16 66 28 81 28 24 0
27 -3 23 -25z m101 9 c44 -15 48 -15 67 2 32 28 40 6 37 -97 -3 -85 -5 -94
-22 -94 -13 0 -23 11 -30 33 -16 46 -63 102 -97 114 -21 7 -29 16 -29 34 0 28
10 29 74 8z m-20 -94 c71 -65 66 -113 -8 -75 -15 8 -35 15 -42 15 -8 0 -14 4
-14 8 0 5 -11 15 -25 22 -14 7 -25 22 -25 32 0 11 4 17 9 14 5 -3 11 1 15 9
10 26 45 16 90 -25z m-247 -282 c6 -7 13 -25 16 -39 10 -40 66 -110 98 -122
23 -9 29 -18 29 -40 0 -32 -8 -32 -84 1 -36 15 -39 15 -52 -2 -7 -11 -20 -16
-29 -13 -12 5 -15 26 -15 110 0 57 3 107 7 110 10 10 19 8 30 -5z m83 -13 c14
-11 48 -27 62 -29 18 -3 68 -49 68 -64 0 -28 -47 -51 -80 -39 -27 10 -107 113
-96 124 3 3 0 13 -7 21 -10 13 -8 14 13 7 14 -4 32 -13 40 -20z m85 -235 c3
-5 -1 -10 -10 -10 -9 0 -13 5 -10 10 3 6 8 10 10 10 2 0 7 -4 10 -10z m895
-150 l0 -120 -1285 0 -1285 0 0 120 0 120 1285 0 1285 0 0 -120z"/>
<path d="M297 253 c-27 -14 -28 -16 -25 -96 l3 -82 49 -3 c28 -2 60 2 73 9 18
10 26 10 35 1 17 -17 93 -15 107 2 8 10 9 16 1 21 -13 8 -13 65 0 65 6 0 10
-9 10 -20 0 -12 7 -34 15 -50 14 -28 20 -30 68 -30 29 0 58 5 65 12 9 9 15 9
24 0 15 -15 124 -16 133 -2 5 8 11 8 20 0 17 -14 293 -11 302 4 4 6 6 27 4 48
-2 27 1 38 11 38 10 0 14 -13 14 -47 l-1 -48 43 -3 c54 -4 71 9 66 51 -3 22
-2 28 4 18 6 -7 15 -10 21 -7 6 4 11 3 11 -3 0 -5 9 -8 20 -6 16 3 20 -2 20
-26 l0 -29 76 0 c41 0 84 5 94 10 13 7 21 7 25 0 9 -14 98 -13 113 2 9 9 15 9
24 0 15 -15 60 -16 75 -1 8 8 13 8 17 0 9 -15 53 -14 62 1 4 6 8 37 9 69 1 32
7 65 14 72 9 11 8 17 -5 28 -20 16 -311 23 -330 8 -6 -5 -26 -4 -47 2 -21 6
-57 9 -80 7 -38 -3 -42 -6 -47 -33 -4 -21 -11 -31 -27 -33 -17 -2 -20 1 -16
16 2 10 -2 26 -11 34 -14 15 -54 16 -471 8 -11 0 -137 2 -280 4 -213 3 -266 1
-288 -11z m37 -27 c-5 -20 -1 -25 24 -34 41 -14 56 -43 40 -77 -12 -27 -32
-34 -83 -33 -28 1 -31 4 -31 35 0 39 9 42 24 8 7 -15 20 -25 32 -25 30 0 24
22 -13 45 -35 22 -48 65 -26 91 19 23 40 18 33 -10z m66 -7 l0 -32 -25 27
c-14 15 -25 29 -25 32 0 2 11 4 25 4 21 0 25 -5 25 -31z m45 9 c-12 -39 -25
-44 -25 -10 0 22 5 32 16 32 11 0 14 -6 9 -22z m65 -53 c0 -43 4 -75 10 -75 6
0 10 -4 10 -9 0 -5 -20 -9 -45 -9 -25 1 -45 5 -45 10 0 4 5 8 10 8 6 0 10 32
10 75 0 73 1 75 25 75 24 0 25 -2 25 -75z m42 45 c6 -37 -9 -39 -22 -4 -13 33
-13 34 4 34 8 0 16 -13 18 -30z m90 18 c-16 -16 -16 -135 1 -141 6 -2 9 -8 4
-12 -4 -5 -20 -4 -35 1 -25 9 -27 14 -30 74 -2 35 -8 70 -14 77 -8 10 0 13 38
13 37 0 45 -3 36 -12z m70 0 c-7 -7 -12 -38 -12 -69 0 -40 -5 -63 -16 -74 -9
-9 -19 -13 -22 -10 -3 3 0 11 6 17 16 16 15 121 0 136 -9 9 -4 12 22 12 26 0
31 -3 22 -12z m88 -73 l0 -85 -32 0 -33 0 0 85 0 85 33 0 32 0 0 -85z m47 70
c27 -19 37 -63 23 -100 -10 -25 -36 -54 -50 -55 -3 0 -5 38 -5 85 0 47 2 85 5
85 3 0 15 -7 27 -15z m103 -68 l0 -84 -28 -1 -28 -1 4 70 c3 46 0 74 -8 84
-11 13 -7 15 24 15 l36 0 0 -83z m62 58 c6 -27 -6 -34 -16 -10 -3 8 -12 15
-21 15 -8 0 -15 5 -15 10 0 6 11 10 24 10 17 0 25 -7 28 -25z m117 -32 c35
-63 41 -117 15 -111 -9 2 -30 28 -46 57 -16 30 -31 57 -34 60 -6 6 3 -69 12
-101 4 -14 -1 -18 -20 -18 -27 0 -33 9 -17 26 5 5 11 33 13 62 4 40 2 55 -8
59 -26 10 -14 23 20 23 32 0 37 -5 65 -57z m51 49 c0 -4 -4 -12 -9 -17 -5 -6
-11 -23 -14 -40 -4 -27 -4 -26 -6 8 0 20 -5 37 -11 37 -5 0 -10 5 -10 10 0 6
11 10 25 10 14 0 25 -4 25 -8z m36 -8 c-3 -9 -6 -22 -6 -30 0 -8 -4 -14 -10
-14 -5 0 -10 14 -10 30 0 21 5 30 16 30 11 0 14 -5 10 -16z m114 -14 c0 -37
-15 -39 -24 -4 -4 15 -10 24 -13 20 -7 -7 -5 -112 3 -138 5 -15 -1 -18 -36
-18 -34 0 -41 3 -36 16 3 9 6 47 6 85 l0 69 50 0 c49 0 50 -1 50 -30z m191 20
c27 -15 25 -60 -3 -68 l-22 -5 22 -8 c13 -5 22 -17 22 -29 0 -11 5 -20 11 -20
8 0 8 -5 -1 -15 -15 -17 -46 -20 -56 -4 -3 6 -6 40 -6 75 0 35 -4 66 -9 69 -7
5 -10 -11 -11 -85 -1 -3 2 -20 5 -37 6 -32 6 -33 -31 -33 l-37 0 0 85 0 85 48
0 c27 0 57 -5 68 -10z m121 -2 c-14 -14 -16 -124 -2 -133 17 -10 11 -25 -9
-25 -35 0 -51 27 -51 89 0 31 -5 62 -12 69 -9 9 -1 12 37 12 38 0 46 -3 37
-12z m78 2 c0 -5 -4 -10 -10 -10 -6 0 -10 -28 -10 -64 0 -45 -5 -67 -15 -76
-19 -16 -34 -5 -17 12 16 16 15 121 0 136 -9 9 -5 12 20 12 18 0 32 -4 32 -10z
m116 -50 c38 -63 44 -110 15 -110 -12 0 -29 20 -50 60 -18 33 -34 60 -37 60
-5 0 1 -44 12 -97 4 -19 0 -23 -21 -23 -26 0 -32 9 -16 26 16 16 17 109 2 128
-14 16 -12 17 24 14 35 -3 42 -8 71 -58z m46 48 c-7 -7 -12 -27 -12 -46 0 -19
-4 -31 -10 -27 -5 3 -10 19 -10 34 0 15 -5 32 -12 39 -9 9 -4 12 22 12 26 0
31 -3 22 -12z m-892 -75 c0 -34 -1 -35 -14 -18 -10 15 -11 23 -2 37 15 25 16
23 16 -19z m737 -25 c-2 -13 -4 -5 -4 17 -1 22 1 32 4 23 2 -10 2 -28 0 -40z
m-697 26 c0 -8 -4 -12 -10 -9 -5 3 -10 10 -10 16 0 5 5 9 10 9 6 0 10 -7 10
-16z m360 1 c0 -10 -10 -15 -30 -15 -20 0 -30 5 -30 15 0 10 10 15 30 15 20 0
30 -5 30 -15z m-963 -17 c-3 -8 -6 -5 -6 6 -1 11 2 17 5 13 3 -3 4 -12 1 -19z
m593 -38 c0 -27 -3 -30 -30 -30 -36 0 -36 2 -7 34 30 32 37 32 37 -4z"/>
<path d="M1955 259 c-6 -8 -10 -52 -10 -99 l0 -85 218 -2 c131 -2 226 1 237 7
13 7 21 7 25 0 8 -13 88 -13 102 1 8 8 13 8 17 0 9 -14 78 -14 110 0 27 13 36
35 36 92 0 29 -7 46 -29 68 -32 31 -64 36 -106 17 -19 -9 -28 -9 -37 0 -15 15
-75 16 -84 1 -3 -6 -17 -8 -33 -4 -58 14 -113 16 -126 5 -10 -8 -13 -26 -10
-58 2 -26 2 -38 -1 -27 -23 88 -34 100 -80 89 -18 -5 -28 -19 -41 -60 -19 -62
-38 -72 -28 -16 5 31 2 41 -15 57 -27 24 -131 34 -145 14z m65 -84 c0 -43 4
-75 10 -75 6 0 10 -4 10 -10 0 -5 -17 -10 -38 -10 l-38 0 4 70 c3 46 0 75 -8
85 -11 13 -7 15 24 15 l36 0 0 -75z m61 65 c27 -15 25 -60 -3 -68 l-22 -5 22
-8 c13 -5 22 -17 22 -29 0 -11 5 -20 10 -20 6 0 13 0 17 -1 4 0 14 24 24 53
18 56 26 37 9 -22 -7 -23 -7 -36 0 -38 20 -7 9 -22 -15 -22 -14 0 -25 5 -25
10 0 6 -7 6 -19 -1 -27 -18 -51 -4 -51 29 0 15 -5 33 -12 40 -9 9 -9 12 0 12
7 0 12 13 12 30 0 17 -4 30 -10 30 -5 0 -10 5 -10 10 0 13 26 13 51 0z m160
-57 c9 -38 19 -75 23 -84 5 -12 -1 -15 -34 -16 -37 -1 -39 1 -34 23 5 19 3 23
-10 18 -9 -3 -16 -1 -16 5 0 6 5 11 11 11 11 0 10 20 -7 84 -6 23 -3 26 22 26
28 0 30 -4 45 -67z m99 -16 l0 -84 -28 -1 -28 -1 4 70 c3 46 0 74 -8 84 -11
13 -7 15 24 15 l36 0 0 -83z m57 61 c32 -30 32 -90 -2 -123 -25 -26 -45 -32
-45 -16 0 6 5 13 10 16 6 3 10 33 10 66 0 33 -4 59 -10 59 -5 0 -10 5 -10 10
0 17 22 11 47 -12z m115 10 c-15 -15 -16 -138 -2 -138 6 0 10 -4 10 -10 0 -5
-17 -10 -38 -10 l-38 0 4 70 c3 46 0 75 -8 85 -11 13 -6 15 36 15 37 0 45 -3
36 -12z m138 -8 c28 -28 27 -96 -2 -127 -47 -50 -118 -12 -118 64 0 52 26 83
70 83 17 0 39 -9 50 -20z"/>
<path d="M2587 234 c-11 -11 -8 -117 3 -134 17 -26 30 9 28 74 -3 55 -14 77
-31 60z"/>
<path d="M2216 960 c-24 -27 -25 -48 -5 -71 17 -20 19 -38 19 -215 0 -106 4
-195 9 -198 4 -3 11 -19 14 -35 6 -31 53 -81 74 -81 7 0 13 -4 13 -8 0 -5 6
-9 13 -10 6 0 40 -6 75 -13 49 -10 68 -10 82 -1 12 7 21 8 25 2 7 -11 53 -3
73 13 6 5 12 6 12 1 0 -21 77 78 88 112 6 22 12 117 13 221 1 169 3 183 20
188 11 4 17 10 14 15 -3 4 2 10 10 14 18 7 20 50 2 64 -19 16 -173 18 -192 2
-19 -15 -20 -56 -2 -67 8 -4 24 -23 37 -41 21 -28 22 -35 10 -43 -8 -6 -11
-12 -5 -15 11 -4 12 -239 1 -297 -4 -23 -14 -38 -26 -42 -11 -4 -18 -11 -15
-16 4 -5 0 -9 -7 -9 -7 0 -22 -3 -34 -6 -13 -3 -28 1 -38 12 -15 15 -17 40
-15 222 2 184 4 207 21 224 21 21 24 61 5 76 -6 6 -72 12 -145 14 -109 2 -136
0 -146 -12z m282 -33 c3 -12 -4 -20 -17 -24 -21 -5 -21 -10 -21 -239 0 -233 0
-234 23 -249 15 -9 23 -24 22 -42 0 -27 -2 -28 -50 -25 -62 4 -147 43 -172 80
-16 24 -18 53 -21 242 -3 204 -4 216 -24 231 -13 10 -19 23 -15 33 6 14 23 16
139 14 119 -3 133 -5 136 -21z m259 7 c4 -11 -5 -24 -26 -41 l-31 -24 0 -175
c0 -251 -15 -294 -123 -339 l-37 -15 0 29 c0 24 7 33 38 48 63 31 72 62 72
255 0 178 -6 209 -46 227 -23 10 -31 31 -17 44 3 4 42 7 85 7 63 0 80 -3 85
-16z"/>
</g>
</svg>
